<svg width="500" height="500" viewBox="0 0 500 500" fill="none" xmlns="http://www.w3.org/2000/svg">
<rect width="500" height="500" fill="black"/>
<path d="M412.583 216.034C410.377 205.321 407.116 194.852 402.849 184.782C398.643 174.862 393.496 165.369 387.481 156.43C381.515 147.6 374.711 139.366 367.162 131.844C359.636 124.295 351.397 117.49 342.562 111.526C333.61 105.54 324.124 100.395 314.225 96.1578C293.752 87.4747 271.741 83 249.503 83C227.265 83 205.255 87.4747 184.782 96.1578C164.985 104.508 147.005 116.634 131.844 131.858C124.296 139.376 117.492 147.605 111.526 156.43C105.539 165.387 100.395 174.877 96.1578 184.782C87.4747 205.255 83 227.265 83 249.503C83 271.741 87.4747 293.752 96.1578 314.225C100.258 324.126 105.557 333.511 111.526 342.562C117.491 351.396 124.296 359.635 131.844 367.162C139.371 374.711 147.609 381.516 156.444 387.481C165.314 393.449 174.88 398.581 184.782 402.849C205.255 411.532 227.265 416.006 249.503 416.006C271.741 416.006 293.752 411.532 314.225 402.849C324.126 398.749 333.511 393.449 342.562 387.481C351.397 381.516 359.636 374.711 367.162 367.162C374.711 359.636 381.516 351.397 387.481 342.562C393.449 333.693 398.581 324.126 402.849 314.225C415.986 283.241 419.381 248.993 412.583 216.034ZM249.657 395.165C169.232 395.165 104.176 329.927 104.176 249.671C104.176 169.414 169.414 104.176 249.657 104.176C329.913 104.176 395.151 169.414 395.151 249.671C395.151 329.927 329.927 395.165 249.657 395.165Z" fill="white"/>
<path d="M256.164 382.53C256.847 382.53 257.516 382.53 258.2 382.349H258.381C259.064 382.349 259.566 382.349 260.25 382.181H260.766C261.282 382.181 261.798 382.181 262.3 382.014H262.816C263.332 382.014 263.848 381.847 264.531 381.847H264.866C265.549 381.847 266.232 381.665 266.916 381.665C267.599 381.665 268.115 381.498 268.798 381.331H269.133C269.649 381.331 270.165 381.163 270.667 381.163H271.016C271.699 380.982 272.215 380.982 272.898 380.815C274.251 380.647 275.618 380.299 276.817 379.964H277.166C277.668 379.797 278.351 379.797 278.867 379.615H279.034C280.401 379.281 281.6 378.932 282.967 378.597C270.177 379.003 257.386 377.799 244.896 375.013C226.097 370.913 208.177 363.578 192.976 350.929C180.993 340.957 171.375 328.445 164.82 314.3C158.265 300.154 154.935 284.729 155.072 269.139C155.195 245.881 163.471 223.402 178.459 205.617C197.927 182.565 225.595 170.432 253.932 169.749H257.865V147.045H253.43C244.81 147.203 236.227 148.231 227.812 150.113C219.345 152.028 211.104 154.833 203.226 158.481C195.194 162.246 187.677 166.848 180.676 172.147C173.442 177.646 166.855 183.948 161.041 190.932C155.567 197.395 150.816 204.438 146.872 211.934C142.971 219.16 139.821 226.768 137.473 234.637C135.169 242.385 133.628 250.339 132.871 258.387L132.355 265.889V270.324C132.522 279.04 133.554 287.575 135.423 295.942C137.306 304.491 140.206 312.677 143.79 320.542C148.072 329.927 155.756 343.761 167.191 354.179C190.54 372.585 219.417 382.575 249.149 382.53H256.164Z" fill="white"/>
<path d="M289.456 360.663C281.033 360.362 272.644 359.449 264.354 357.93C229.183 351.612 198.949 330.094 187.863 297.657C174.363 258.205 195.031 215.518 234.301 202.548C241.785 200.04 249.628 198.768 257.521 198.783C267.603 198.783 277.672 200.833 286.904 204.584L296.457 184.266C293.584 183.114 290.682 182.035 287.755 181.03C277.971 177.959 267.775 176.403 257.521 176.414C247.247 176.433 237.043 178.105 227.301 181.365C214.866 185.466 203.414 192.094 193.664 200.833C188.962 205.022 184.674 209.655 180.862 214.667C177.093 219.622 173.832 224.943 171.128 230.551C165.621 241.825 162.372 254.066 161.561 266.586C160.711 279.556 162.412 292.525 166.679 304.825C171.027 317.478 178.015 329.062 187.179 338.81C195.547 347.861 205.281 354.694 217.051 361.012C229.351 367.496 244.551 370.913 260.421 373.144C270.671 374.497 284.338 374.846 292.357 374.846C299.357 372.28 302.258 371.08 306.023 369.546C309.273 368.012 312.508 366.478 315.757 364.596C319.007 362.713 319.523 362.364 324.975 358.794C325.461 358.492 325.918 358.147 326.342 357.762C307.557 361.012 302.774 360.83 289.456 360.663Z" fill="white"/>
<path d="M331.478 335.226C326.179 335.561 318.662 336.063 310.127 336.063C294.927 336.063 276.309 334.71 260.439 329.411C235.839 321.225 212.62 300.223 212.62 274.256C212.614 268.11 213.821 262.024 216.17 256.345C218.519 250.666 221.966 245.506 226.311 241.16C230.657 236.814 235.817 233.368 241.496 231.019C247.175 228.67 253.261 227.463 259.407 227.469C276.993 227.469 292.193 237.203 300.226 251.371L320.545 241.303C317.359 235.305 313.266 229.834 308.412 225.084C301.98 218.641 294.34 213.529 285.93 210.041C277.52 206.553 268.505 204.758 259.4 204.758C250.296 204.758 241.281 206.553 232.871 210.041C224.461 213.529 216.821 218.641 210.389 225.084C203.947 231.516 198.837 239.155 195.351 247.564C191.864 255.972 190.07 264.986 190.07 274.089C190.115 283.629 192.158 293.054 196.066 301.757C199.637 309.608 204.601 316.957 210.918 323.791C222.019 335.728 237.206 345.295 253.439 350.761C268.974 355.88 291.859 357.762 314.06 356.228C320.196 355.712 324.812 355.196 332.663 353.495C340.24 347.516 347.117 340.699 353.163 333.176C347.864 333.692 338.13 334.71 331.478 335.226Z" fill="white"/>
</svg>
