<svg width="500" height="500" viewBox="0 0 500 500" fill="none" xmlns="http://www.w3.org/2000/svg">
<rect width="500" height="500" fill="#F3BA2F"/>
<path d="M190.655 225.323L249.5 166.478L308.373 225.348L342.612 191.109L249.5 98L156.418 191.082L190.656 225.321L190.655 225.323ZM98 249.5L132.24 215.255L166.478 249.493L132.238 283.733L98 249.5ZM190.655 273.681L249.5 332.522L308.372 273.653L342.629 307.874L342.612 307.892L249.5 401L156.37 307.87L190.659 273.677L190.655 273.681ZM332.522 249.515L366.762 215.274L401 249.512L366.761 283.752L332.522 249.515Z" fill="white"/>
<path d="M284.226 249.482H284.241L249.5 214.739L214.787 249.447L214.738 249.494L214.787 249.544L249.5 284.261L284.243 249.518L284.26 249.499L284.228 249.482" fill="white"/>
</svg>
