<svg width="500" height="500" viewBox="0 0 500 500" fill="none" xmlns="http://www.w3.org/2000/svg">
<rect width="500" height="500" fill="#F7931A"/>
<path d="M368.555 219.273C373.523 186.008 348.195 168.125 313.562 156.195L324.797 111.133L297.359 104.297L286.422 148.172C279.219 146.375 271.812 144.68 264.453 143L275.469 98.8359L248.055 92L236.812 137.047C230.844 135.688 224.984 134.344 219.297 132.93L219.328 132.789L181.5 123.344L174.203 152.641C174.203 152.641 194.555 157.305 194.125 157.594C205.234 160.367 207.25 167.719 206.906 173.547L194.109 224.883C194.875 225.078 195.867 225.359 196.961 225.797L194.07 225.078L176.125 296.992C174.766 300.367 171.32 305.43 163.555 303.508C163.828 303.906 143.617 298.531 143.617 298.531L130 329.937L165.703 338.836C172.344 340.5 178.852 342.242 185.25 343.883L173.898 389.469L201.297 396.305L212.547 351.211C220.023 353.242 227.289 355.117 234.398 356.883L223.195 401.766L250.625 408.602L261.977 363.109C308.75 371.961 343.93 368.391 358.719 326.094C370.648 292.031 358.133 272.383 333.523 259.562C351.445 255.414 364.945 243.625 368.547 219.273H368.555ZM305.875 307.156C297.391 341.219 240.047 322.812 221.445 318.188L236.508 257.805C255.102 262.445 314.719 271.633 305.883 307.156H305.875ZM314.352 218.781C306.617 249.766 258.883 234.023 243.391 230.164L257.047 175.398C272.539 179.258 322.414 186.461 314.352 218.781Z" fill="white"/>
</svg>
